<?xml version="1.0" encoding="utf-8"?>
<!-- Generator: Adobe Illustrator 12.0.1, SVG Export Plug-In  -->
<!DOCTYPE svg PUBLIC "-//W3C//DTD SVG 1.1//EN" "http://www.w3.org/Graphics/SVG/1.1/DTD/svg11.dtd" [
	<!ENTITY ns_flows "http://ns.adobe.com/Flows/1.0/">
	<!ENTITY ns_svg "http://www.w3.org/2000/svg">
	<!ENTITY ns_xlink "http://www.w3.org/1999/xlink">
]>
<svg  version="1.1" xmlns="&ns_svg;" xmlns:xlink="&ns_xlink;" xmlns:a="http://ns.adobe.com/AdobeSVGViewerExtensions/3.0/"
	 width="25" height="22" viewBox="0 -0.868 25 22" enable-background="new 0 -0.868 25 22" xml:space="preserve">
<defs>
</defs>
<path fill="#010101" d="M6.697,7.574l1.605,1.833l2.003-2.288l-1.339-1.53C7.534,3.952,5.467,3.014,3.293,3.014H0v3.015h3.293
	C4.597,6.029,5.838,6.592,6.697,7.574L6.697,7.574z"/>
<path fill="#010101" d="M19.596,15.074h-0.278c-1.304,0-2.544-0.563-3.403-1.544l-2.605-2.979l2.605-2.978
	c0.859-0.982,2.1-1.544,3.403-1.544h0.278v3.015l4.523-4.522L19.596,0v3.014h-0.278c-2.173,0-4.24,0.938-5.672,2.575L6.697,13.53
	c-0.858,0.98-2.1,1.544-3.403,1.544H0v3.015h3.293c2.173,0,4.241-0.937,5.672-2.574l2.34-2.675l2.339,2.675
	c1.432,1.638,3.499,2.574,5.672,2.574h0.279v3.015l4.522-4.522l-4.523-4.521V15.074z"/>
</svg>
